<svg xmlns="http://www.w3.org/2000/svg" viewBox="699.189 861 1048.463 338.75">
  <defs>
    <style>
      .cls-1 {
        opacity: 0.228;
      }

      .cls-2 {
        fill: #2eacdf;
      }

      .cls-3 {
        fill: #2eabde;
      }
    </style>
  </defs>
  <g id="Group_96" data-name="Group 96" class="cls-1" transform="translate(699.189 861)">
    <g id="Group_77" data-name="Group 77" transform="translate(452.167 0)">
      <path id="Path_421" data-name="Path 421" class="cls-2" d="M281.875,78.48c2.969,1.856,4.639,1.856,5.752,1.67,1.3-.186,4.639-9.834,3.9-11.319a153.849,153.849,0,0,0-8.907-12.618c-2.783-2.412-6.68,13.731-7.237,15.216C274.267,74.4,278.72,76.439,281.875,78.48Z" transform="translate(-216.669 47.907)"/>
      <path id="Path_422" data-name="Path 422" class="cls-2" d="M272.525,77.43c.371,0,1.3.742,3.526-3.9,2.6-5.567,6.494-14.659,6.866-15.772,1.113-3.711,0-4.453-.371-5.381-1.113-2.227-2.412-3.711-3.154-3.526-.186,0-1.856-1.856-3.526,3.154-1.67,4.824-7.051,11.69-8.907,17.628a4.437,4.437,0,0,0,1.484,5.381A8.54,8.54,0,0,0,272.525,77.43Z" transform="translate(-224.019 41.534)"/>
      <path id="Path_423" data-name="Path 423" class="cls-2" d="M298.005,79.518c.371.742,3.154,4.824,6.866,6.309,5.01,1.856,12.989,2.969,13.731-.742a85.323,85.323,0,0,0-.186-11.319s.186-16.514-1.856-27.462c-.371-1.67-1.67-6.866-5.567-8.35-4.453-1.484-31.916-7.237-39.709-7.051-4.824.186-2.041,4.453-1.484,5.381C273.141,42.035,295.964,76.549,298.005,79.518Z" transform="translate(-222.408 26.458)"/>
      <path id="Path_424" data-name="Path 424" class="cls-2" d="M286.891,80.24c2.969,2.783,16.886,7.793,18,6.866,1.3-1.113,2.041-10.762,1.3-15.958a10.737,10.737,0,0,0-1.3-3.9c-2.041-2.969-8.536-1.856-12.432-2.969-3.34-.928-3.526,2.041-3.9,2.6C287.077,70.591,284.294,77.828,286.891,80.24Z" transform="translate(-207.583 54.868)"/>
      <path id="Path_425" data-name="Path 425" class="cls-2" d="M252.2,10.1" transform="translate(-236.352 8.665)"/>
      <path id="Path_426" data-name="Path 426" class="cls-2" d="M279.413,94.643c.928-1.67,6.494-10.948,8.907-18.927a13.022,13.022,0,0,0-.928-9.649c-2.969-4.453-12.247-18-12.247-18S258.631,22.833,253.806,15.04c-2.041-3.154-3.711-3.34-3.711-3.34-6.494,4.453-2.6,15.587-1.67,38.967.742,17.813,5.381,28.2,8.907,33.586,2.969,4.453,8.721,7.793,14.844,10.762C273.289,95.571,277.372,98.169,279.413,94.643Z" transform="translate(-241.298 10.034)"/>
      <path id="Path_427" data-name="Path 427" class="cls-2" d="M322.19,45.4c.742-3.154-.928-4.824-2.041-6.309-4.082-5.381-8.721-8.164-25.978-16.143S261.7,8.66,255.576,8.1c-2.969-.186-2.969,3.154-2.6,3.711,6.309,11.133,13.731,20.04,15.216,22.452,3.34,4.824,5.938,5.752,7.237,5.938,8.536,1.856,33.029,6.309,42.121,7.237C321.077,48,322.19,45.586,322.19,45.4Z" transform="translate(-235.831 6.95)"/>
      <g id="Group_76" data-name="Group 76">
        <path id="Path_428" data-name="Path 428" class="cls-2" d="M244.663.382h0a2.067,2.067,0,0,1,2.969.557l9.092,9.463c.557.928,1.3,1.856.742,3.34s-5.01,3.711-5.938,4.082c-1.113.371-1.484-.557-2.227-1.484l-5.381-12.8A2.575,2.575,0,0,1,244.663.382Z" transform="translate(-243.659 0.013)"/>
      </g>
    </g>
    <g id="Group_79" data-name="Group 79" transform="translate(334.385 103.747)">
      <path id="Path_429" data-name="Path 429" class="cls-3" d="M210.747,70.621c-1.113-2.6-2.041-3.154-2.969-3.711-.928-.371-7.237,4.268-7.422,5.567s-.186,10.762.186,11.876c.742,2.783,10.206-5.752,11.319-6.494C213.716,76.559,211.861,73.219,210.747,70.621Z" transform="translate(-163.029 -46.496)"/>
      <path id="Path_430" data-name="Path 430" class="cls-3" d="M217.826,75.54c-.186-.186-.557-.928-3.9.928-4.268,2.412-10.577,6.494-11.319,7.051-2.412,1.856-2.041,2.783-2.041,3.526-.371,2.041,0,3.34.557,3.711.186,0,.371,2.041,3.711-.371,3.154-2.227,9.649-4.268,13.546-7.422,1.856-1.484,1.856-2.783,1.484-4.082A8.5,8.5,0,0,0,217.826,75.54Z" transform="translate(-162.871 -39.354)"/>
      <path id="Path_431" data-name="Path 431" class="cls-3" d="M210.13,79.463c0-.557.186-4.453-1.484-7.051-2.227-3.34-7.051-7.608-9.092-5.567a62.528,62.528,0,0,0-4.824,7.237s-7.422,10.391-10.948,18.37c-.557,1.3-2.041,5.2,0,7.793,2.227,2.969,17.071,18.741,22.267,22.081,3.154,2.041,3.154-1.856,3.34-2.783C209.388,114.347,210.13,82.246,210.13,79.463Z" transform="translate(-177.999 -46.988)"/>
      <path id="Path_432" data-name="Path 432" class="cls-3" d="M211.057,68.148c-.742-3.154-7.422-12.432-8.536-12.247-1.3.186-5.938,5.938-7.793,9.649A8.9,8.9,0,0,0,193.8,68.7c0,2.783,4.639,5.01,6.494,7.422,1.67,2.041,3.154.371,3.526,0C206.789,74.271,211.613,70.931,211.057,68.148Z" transform="translate(-168.534 -55.899)"/>
      <path id="Path_433" data-name="Path 433" class="cls-3" d="M197.3,117.6" transform="translate(-165.54 -3.109)"/>
      <path id="Path_434" data-name="Path 434" class="cls-3" d="M218.738,82.965a76.281,76.281,0,0,0-14.1,8.164,9.569,9.569,0,0,0-3.711,6.68c0,4.082-.186,16.886-.186,16.886s-.742,23.38-.928,30.431c-.186,2.969.742,3.711.928,3.711,6.123,0,8.536-8.721,18.184-23.937,7.422-11.69,9.092-20.411,9.092-25.236,0-4.082-2.227-8.907-4.639-13.36C223.006,85.006,221.707,81.481,218.738,82.965Z" transform="translate(-163.412 -33.048)"/>
      <path id="Path_435" data-name="Path 435" class="cls-3" d="M181.7,89.5c-1.856,1.67-1.484,3.526-1.484,5.01.186,5.2,2.041,9.092,9.463,21.71,7.422,12.8,14.288,23.38,18,26.349,1.856,1.484,3.154-.742,3.34-1.3A157.887,157.887,0,0,0,211.2,120.3c0-4.639-1.3-6.309-2.041-7.051-4.639-5.01-18.37-18.556-23.566-23.194C183.554,88.382,181.884,89.31,181.7,89.5Z" transform="translate(-180.184 -27.517)"/>
      <g id="Group_78" data-name="Group 78" transform="translate(29.719 118.198)">
        <path id="Path_436" data-name="Path 436" class="cls-3" d="M199.54,134.075h0a1.663,1.663,0,0,1-1.67-1.67l-1.67-10.02c0-.928,0-1.856.928-2.412,1.113-.742,4.824-.186,5.567,0,.928.371.742.928.742,1.856l-2.227,10.577A1.663,1.663,0,0,1,199.54,134.075Z" transform="translate(-196.2 -119.598)"/>
      </g>
    </g>
    <g id="Group_80" data-name="Group 80" transform="translate(769.643 14.098)">
      <path id="Path_437" data-name="Path 437" class="cls-2" d="M453.638,54.539c0,.742-1.3,1.113-1.856.371s-11.69-40.08-11.876-41.75c-.371-2.969,6.68-3.526,7.793,1.113C447.885,14.088,453.823,53.8,453.638,54.539Z" transform="translate(-393.247 -4.782)"/>
      <path id="Path_438" data-name="Path 438" class="cls-2" d="M456.032,59.012c-.742.371-1.484,1.3-2.041.742C453.62,59.383,429.683,18,429.683,18A7.446,7.446,0,0,1,432.1,7.984c2.227-1.113,6.866,0,8.536,4.639,0,0,17.442,44.533,17.442,45.276C457.887,58.641,456.589,58.826,456.032,59.012Z" transform="translate(-402.877 -7.585)"/>
      <path id="Path_439" data-name="Path 439" class="cls-2" d="M453.168,53.076c0,.928-2.041.557-2.227,0s-3.154-37.668-3.34-39.152,7.793-2.783,7.422,2.041C455.024,15.78,453.168,52.149,453.168,53.076Z" transform="translate(-386.654 -3.319)"/>
      <path id="Path_440" data-name="Path 440" class="cls-2" d="M454.572,52.708c-.186.557-1.484.371-1.67-.371s4.824-35.812,5.01-36.926,7.793-1.856,6.866,2.041C464.963,17.266,454.758,52.151,454.572,52.708Z" transform="translate(-382.12 -1.652)"/>
      <path id="Path_441" data-name="Path 441" class="cls-2" d="M457.677,52.83c-.186.371-1.856,0-1.67-.557.186-.742,10.577-33.957,11.133-35.07s7.237-1.113,5.752,2.412C473.078,19.43,457.862,52.273,457.677,52.83Z" transform="translate(-379.472 0.082)"/>
      <path id="Path_442" data-name="Path 442" class="cls-2" d="M460.688,53.259c-.371.371-1.484,0-1.484-.928-.371-.928,14.659-31.544,15.587-32.287s6.309-.371,4.824,3.34C479.614,23.2,461.059,52.888,460.688,53.259Z" transform="translate(-376.731 2.807)"/>
      <path id="Path_443" data-name="Path 443" class="cls-2" d="M483.4,28.409s-19.854,25.05-20.226,25.236c-.557.371-.928.186-1.67-.928-.557-.928,17.813-28.019,18.556-28.947C480.989,23.028,485.442,25.069,483.4,28.409Z" transform="translate(-374.766 6.132)"/>
      <path id="Path_444" data-name="Path 444" class="cls-2" d="M464.042,55.275a8.063,8.063,0,0,1-.742-1.3c0-.186.186-.371.186-.557.557-.742,19.483-22.638,20.226-23.566,1.113-1.3,1.67-1.3,2.041-1.113.742.371,1.484,2.6,1.484,3.9,0,.371-.186,1.113-1.3,2.227,0,0-20.968,19.854-21.339,20.226C464.6,55.089,464.228,55.461,464.042,55.275Z" transform="translate(-373.22 10.44)"/>
      <path id="Path_445" data-name="Path 445" class="cls-2" d="M465.126,55.934c-.557-1.67-.928-2.227-.557-2.783s20.968-18.741,22.452-17.628c.557.557,3.526,4.082-.186,6.494C486.836,42.017,465.682,57.975,465.126,55.934Z" transform="translate(-372.262 16.275)"/>
      <path id="Path_446" data-name="Path 446" class="cls-2" d="M465.2,55.76a3.158,3.158,0,0,0-.186-1.3c-.186-.928.557-1.484,1.856-2.227,4.268-2.412,18.741-9.834,20.411-9.834.742,0,1.856,4.268-.371,5.752-1.484.742-14.659,6.866-18.927,8.164C467.24,56.5,465.384,57.059,465.2,55.76Z" transform="translate(-371.779 22.201)"/>
      <path id="Path_447" data-name="Path 447" class="cls-2" d="M464.938,58.635a5.833,5.833,0,0,1,0-2.041,2,2,0,0,1,1.484-1.67c.371-.186,17.442-5.381,17.442-5.381s.928-.371,1.113.371c.186,1.484,1.484,5.01-5.381,7.422,0,0-10.391,1.856-12.247,2.227C464.381,60.305,464.938,58.635,464.938,58.635Z" transform="translate(-371.889 28.233)"/>
      <path id="Path_448" data-name="Path 448" class="cls-2" d="M453.1,55.073c-.557-.371-27.277-30.246-27.277-30.246-2.969-3.711,2.041-8.907,4.082-6.68,1.3,1.3,24.493,34.884,24.679,35.627C454.77,54.7,453.656,55.444,453.1,55.073Z" transform="translate(-406.069 0.993)"/>
      <path id="Path_449" data-name="Path 449" class="cls-2" d="M452.467,53.868c-.742-.557-29.874-22.267-29.874-22.267-3.9-2.783,2.227-7.979,3.154-7.051.928,1.113,27.648,27.091,28.019,27.462C454.137,52.569,453.209,54.239,452.467,53.868Z" transform="translate(-409.147 6.836)"/>
      <path id="Path_450" data-name="Path 450" class="cls-2" d="M452.68,53.047c-.557-.371-33.771-14.659-33.771-14.659-3.34-1.67,1.856-7.051,2.969-6.68.928.557,31.173,19.112,31.73,19.669C453.979,52.305,453.051,53.418,452.68,53.047Z" transform="translate(-412.144 13.039)"/>
      <path id="Path_451" data-name="Path 451" class="cls-2" d="M452.272,53.224c-.557-.186-35.441-9.278-35.441-9.278-3.526-1.113.742-6.309,1.856-5.938,1.113.186,33.4,13.36,34.142,13.731C453.571,51.925,452.829,53.41,452.272,53.224Z" transform="translate(-414.148 18.428)"/>
      <path id="Path_452" data-name="Path 452" class="cls-2" d="M451.95,52.741c.742.557.371,1.67-.186,1.67-.557.186-35.256-4.453-35.256-4.453-3.711-1.3-.557-5.567.557-5.752C418.365,43.835,451.579,51.814,451.95,52.741Z" transform="translate(-414.754 23.736)"/>
      <path id="Path_453" data-name="Path 453" class="cls-2" d="M451.256,53.782c.371,1.3.371,1.67-.371,1.856-.371,0-32.287-.557-32.287-.557-3.9-.557-2.6-5.381-1.3-5.381C418.227,49.7,450.884,52.669,451.256,53.782Z" transform="translate(-413.688 28.447)"/>
      <path id="Path_454" data-name="Path 454" class="cls-2" d="M417.9,56.584c.186-.557.557-.928,2.227-.928,1.113,0,30.06-.557,30.988-.557.186,0,.371.186.557.186.371.186.557,1.113.557,1.3s-.557.371-.557.371c-.557.186-29.132,3.711-29.132,3.711a3.445,3.445,0,0,1-2.412-.371" transform="translate(-412.062 33.067)"/>
      <path id="Path_455" data-name="Path 455" class="cls-2" d="M450.233,57.7c.557,0,.742.742,1.856,2.227,1.3,1.856-24.493,7.979-24.493,7.979-4.268,1.3-5.2-3.34-5.2-4.082C422.4,61.968,449.677,57.7,450.233,57.7Z" transform="translate(-408.212 35.291)"/>
      <path id="Path_456" data-name="Path 456" class="cls-2" d="M448.03,60.977c1.484-.557,2.227-.928,2.969-.186a5.884,5.884,0,0,0,.928,1.113c.928.928-.742,2.041-1.484,2.412-3.711,2.412-16.886,8.907-18.37,9.463-2.412.928-5.2-2.783-4.639-3.34C428.546,69.327,443.577,62.647,448.03,60.977Z" transform="translate(-403.968 37.581)"/>
      <path id="Path_457" data-name="Path 457" class="cls-2" d="M434.5,73.636s15.03-9.834,15.216-10.02a1.907,1.907,0,0,1,2.227-.186,5.7,5.7,0,0,1,1.484,1.3s1.67.928-.742,2.6c-1.484,1.113-10.02,7.793-10.02,7.793-6.123,3.711-7.793.742-8.721-.371C433.569,74.193,434.5,73.636,434.5,73.636Z" transform="translate(-398.414 39.952)"/>
      <path id="Path_458" data-name="Path 458" class="cls-2" d="M450.223,39.29a24.939,24.939,0,0,1,23.566,4.268c8.721,6.866,6.866,21.339,6.68,25.978-.186,3.154-2.041,2.783-2.041,2.783s-5.2-1.484-11.69,1.67-8.721,7.979-8.721,7.979-.742,1.67-3.34-.186c-3.711-2.6-16.143-10.577-15.772-21.524A24.126,24.126,0,0,1,450.223,39.29Z" transform="translate(-394.099 18.446)"/>
      <path id="Path_459" data-name="Path 459" class="cls-2" d="M449.5,91.788c2.783-5.938,2.6-7.422,2.783-13.917,0-6.123.557-5.567-.928-7.793a2.305,2.305,0,0,1-.186-2.6,16.531,16.531,0,0,1,7.793-7.422,17.183,17.183,0,0,1,10.762-1.3,2.2,2.2,0,0,1,1.856,1.67c.742,2.6.742,1.856,5.567,5.752,5.01,4.082,6.123,5.2,12.432,6.68" transform="translate(-385.027 35.902)"/>
    </g>
    <g id="Group_81" data-name="Group 81" transform="translate(939.385 103.92)">
      <path id="Path_460" data-name="Path 460" class="cls-2" d="M541.355,66.027c.186-.371.186-.742.371-1.113,1.856-4.824,6.68-8.721,6.68-8.721a.539.539,0,0,1,.928.186c.742,1.3,2.783,6.494,2.227,10.577a9.314,9.314,0,0,1-.371,2.227C549.705,74.562,540.056,71.594,541.355,66.027Z" transform="translate(-476.283 -55.992)"/>
      <path id="Path_461" data-name="Path 461" class="cls-2" d="M564.351,103.177a3.258,3.258,0,0,1,.928.742c3.711,2.969,6.309,8.907,6.309,8.907a.575.575,0,0,1-.371.742c-1.484.186-7.051,0-10.391-1.67l-1.856-.928C554.516,108,559.9,100.394,564.351,103.177Z" transform="translate(-462.539 -16.137)"/>
      <path id="Path_462" data-name="Path 462" class="cls-2" d="M518.42,102.02c-.371,0-.742.186-1.113.186-4.825.371-10.762-2.041-10.762-2.041s-.557-.186-.186-.742c.928-1.113,5.01-4.824,8.536-6.123a7.069,7.069,0,0,1,1.856-.557C522.131,91.629,523.615,100.907,518.42,102.02Z" transform="translate(-506.231 -24.629)"/>
      <path id="Path_463" data-name="Path 463" class="cls-2" d="M518.678,132.456c9.649-5.381,2.412-22.267-.928-23.38a2.691,2.691,0,0,1-2.041-2.969s-.371-2.227,4.639-4.453c5.567-2.412,8.164-3.711,16.515-2.412a27.542,27.542,0,0,1,7.608,2.227A21.863,21.863,0,0,1,548,103.509c.186,0,.186.186.371,0l-.185-.186c-.186-.186-.186-.371-.371-.742a30.873,30.873,0,0,1-2.412-5.01c-3.34-7.979-6.68-13.917-3.526-22.452a22.084,22.084,0,0,1,6.494-9.092c2.041-1.113,2.6-1.67,4.639-2.227a7.412,7.412,0,0,1,2.412.371c2.227.928,1.67,2.227,1.67,2.227-.557,4.824,9.463,6.494,9.463,6.494s8.907,1.67,10.391-2.969c0,0,.371-1.3,2.412-1.113a7.207,7.207,0,0,1,3.9,1.67c1.484,1.113,1.3,1.113,3.34,4.639.928,1.67,1.67,4.453,1.484,10.02-.371,9.092-6.309,13.546-12.8,19.3a46.365,46.365,0,0,1-4.453,3.34c-.185.186-.371.371-.557.371h-.371c0,.186.186.186.371.186a30.066,30.066,0,0,1,4.082-.186,37.589,37.589,0,0,1,7.793,1.113c1.3.371,7.422-.186,15.772,8.721,2.783,2.969,2.227,4.639,2.227,4.639a4.153,4.153,0,0,1-4.824,3.34c-3.525-.371-13.546,7.051-11.133,19.112,0,0,1.484,3.711-.371,5.567-.928,1.113-3.526,1.67-8.907-.557,0,0-7.422-2.969-11.5-9.092-.928-1.3-5.567-7.237-10.391-8.164-4.639-1.113-10.02,3.34-13.731,5.567-5.752,3.526-14.288.928-14.288.928-5.2-1.856-5.752-2.6-6.866-3.34C515.338,134.5,518.678,132.456,518.678,132.456Z" transform="translate(-498.14 -49.312)"/>
      <path id="Path_464" data-name="Path 464" class="cls-2" d="M545.964,103.214c-3.526.742-4.082,2.412-4.639,3.9-.371,1.484-.371,1.113-.371,1.484a50.731,50.731,0,0,1-4.268,8.35,43.535,43.535,0,0,1-6.68,8.721,32.262,32.262,0,0,1-2.783,2.412c-1.856,1.484-4.268,3.34-6.123,4.824,1.484.371,3.154.742,4.824,1.113,2.969.742,5.938,1.3,9.092,2.041,1.67.371,3.154.742,4.824,1.113h0c1.67.371,3.154.742,4.824,1.113,2.969.742,5.938,1.3,9.092,2.041,1.484.371,3.154.742,4.824,1.113-.928-2.227-2.227-4.824-3.34-7.051a20.118,20.118,0,0,1-1.484-3.526,42.733,42.733,0,0,1-2.227-10.762c-.371-3.9-.557-7.608-.185-9.463a11.051,11.051,0,0,1,.185-1.484c.186-1.484.371-3.154-2.6-5.567C548.377,103.771,547.263,103.028,545.964,103.214Z" transform="translate(-493.51 -15.617)"/>
      <path id="Path_465" data-name="Path 465" class="cls-2" d="M521.8,89.3" transform="translate(-492.911 -27.495)"/>
    </g>
    <g id="Group_82" data-name="Group 82" transform="translate(470.138 206.176)">
      <path id="Path_466" data-name="Path 466" class="cls-2" d="M316.069,175.863c.186.371.557.928.742,1.3,2.412,5.381,1.67,12.432,1.67,12.432s0,.928-.742.557c-1.67-.557-7.422-2.969-10.391-6.68a19.43,19.43,0,0,1-1.484-2.041C302.153,175.863,312.544,170.3,316.069,175.863Z" transform="translate(-209.085 -57.664)"/>
      <path id="Path_467" data-name="Path 467" class="cls-2" d="M267.55,162.185c-.371,0-.928.186-1.3.186-5.567.557-12.432-2.227-12.432-2.227s-.742-.371-.371-.928c.928-1.3,5.752-5.752,9.834-7.237l2.227-.742C271.632,150.124,273.488,160.886,267.55,162.185Z" transform="translate(-253.344 -76.829)"/>
      <path id="Path_468" data-name="Path 468" class="cls-2" d="M304.94,125.707c.186-.371.557-.742.742-1.113,3.526-4.268,10.391-7.051,10.391-7.051s.742-.371.928.371c.186,1.67-.186,8.164-2.041,12.061a11.081,11.081,0,0,1-1.113,2.041C310.506,137.212,301.6,130.9,304.94,125.707Z" transform="translate(-209.831 -105.667)"/>
      <path id="Path_469" data-name="Path 469" class="cls-2" d="M330.07,124.85c-3.526,12.247,16.143,20.226,19.854,18.37a3.161,3.161,0,0,1,4.082.742s2.227,1.484-.186,7.422c-2.6,6.494-3.711,9.649-11.5,15.4a27.665,27.665,0,0,1-7.979,4.268,33.844,33.844,0,0,1-4.639,1.3c-.186,0-.371,0-.371.371h.371c.371,0,.557.186.928.186,2.041.557,4.082,1.3,6.123,2.041,9.278,3.711,16.886,5.752,21.153,15.4,2.412,5.2,2.412,11.319,2.041,12.618-.742,2.783-.742,3.526-2.041,5.567a8.585,8.585,0,0,1-2.227,1.856c-2.6.928-3.154-.371-3.154-.371-3.34-4.453-12.989,2.412-12.989,2.412S331,218.37,333.41,223.38c0,0,.742,1.484-1.113,2.783a8.345,8.345,0,0,1-4.639,1.856c-2.041.186-2.041.186-6.494-1.113-2.041-.557-5.01-2.227-9.463-6.866-7.237-7.793-5.938-16.329-5.2-26.163.186-2.041.371-4.082.742-6.309,0-.371.186-.557.186-.928,0-.186.186-.186.186-.371-.186-.186-.371,0-.371.186a28.515,28.515,0,0,1-3.154,3.526,33.326,33.326,0,0,1-7.237,5.381c-1.3.742-5.938,6.123-20.04,5.567-4.639-.186-5.567-2.041-5.567-2.041s-2.6-3.34,1.3-6.68c3.154-2.783,5.381-16.886-6.68-24.679,0,0-4.268-1.856-4.268-4.824,0-1.67,1.484-4.082,7.793-6.866,0,0,8.536-3.711,16.7-1.856,1.856.371,10.391,1.3,15.216-1.67,4.639-2.969,5.381-10.948,6.68-15.772,1.856-7.422,10.762-12.432,10.762-12.432,5.752-2.6,6.866-2.6,8.35-2.969C330.812,120.4,330.07,124.85,330.07,124.85Z" transform="translate(-246.281 -102.583)"/>
      <path id="Path_470" data-name="Path 470" class="cls-2" d="M301.579,155.633c2.227-3.526,1.3-5.381.557-6.866s-.742-1.3-.742-1.484a62.4,62.4,0,0,1-3.34-10.391,48.08,48.08,0,0,1-1.67-12.618,30.452,30.452,0,0,1,.371-4.268c.371-2.783.742-6.123.928-8.907-1.484.928-3.154,2.041-4.824,2.969-2.969,1.856-6.123,3.9-9.092,5.752-1.67.928-3.154,2.041-4.824,2.969h0c-1.67.928-3.154,2.041-4.824,2.969-2.969,1.856-6.123,3.711-9.092,5.752-1.484.928-3.154,2.041-4.824,2.969,2.6,1.113,5.752,2.041,8.536,2.969a18.932,18.932,0,0,1,4.082,1.67,45.725,45.725,0,0,1,10.577,7.051,63.018,63.018,0,0,1,7.793,7.422c.186.371,0,0,1.113,1.484s2.227,2.969,6.494,2.412C298.981,157.118,300.466,156.932,301.579,155.633Z" transform="translate(-247.478 -111.1)"/>
      <path id="Path_471" data-name="Path 471" class="cls-2" d="M304.2,136.2" transform="translate(-209.834 -89.626)"/>
    </g>
    <g id="Group_83" data-name="Group 83" transform="translate(0 103.815)">
      <path id="Path_472" data-name="Path 472" class="cls-2" d="M36.02,103.707a1.055,1.055,0,0,0,1.484-.928c-.186-.928-18.37-35.812-19.483-37.3-1.67-2.227-7.051,2.041-4.639,5.938C13.382,71.42,35.463,103.336,36.02,103.707Z" transform="translate(10.97 -48.291)"/>
      <path id="Path_473" data-name="Path 473" class="cls-2" d="M38.11,107.825c.742-.186,1.856-.186,1.856-.742S29.389,61.622,29.389,61.622a7.156,7.156,0,0,0-8.164-5.567C19,56.8,16.4,60.509,18.441,64.962c0,0,17.257,42.863,17.628,43.42C36.44,108.753,37.368,108.011,38.11,107.825Z" transform="translate(15.189 -55.935)"/>
      <path id="Path_474" data-name="Path 474" class="cls-2" d="M35.448,102.542c.557.557,1.856-.928,1.484-1.484S14.109,72.3,13.367,71.183s-7.422,3.154-3.9,6.309C9.471,77.492,34.892,101.986,35.448,102.542Z" transform="translate(7.274 -43.044)"/>
      <path id="Path_475" data-name="Path 475" class="cls-2" d="M35.748,101.659c.557.371,1.3-.742.928-1.3C36.119,99.8,9.585,78.279,8.657,77.722s-6.68,3.9-3.526,5.938C5.132,83.66,35.192,101.288,35.748,101.659Z" transform="translate(3.634 -37.336)"/>
      <path id="Path_476" data-name="Path 476" class="cls-2" d="M35.342,101.951c.371.186,1.3-1.113.742-1.484S6.024,83.581,5.1,83.21c-1.113-.371-5.752,4.082-2.6,5.567C2.5,88.777,34.785,101.766,35.342,101.951Z" transform="translate(1.257 -32.619)"/>
      <path id="Path_477" data-name="Path 477" class="cls-2" d="M34.719,103.1a.959.959,0,0,0,.371-1.67C34.719,100.69,3.731,89,2.618,89S-2.021,92.9,1.5,94.567C1.5,94.567,34.163,103.1,34.719,103.1Z" transform="translate(0.024 -27.647)"/>
      <path id="Path_478" data-name="Path 478" class="cls-2" d="M2.581,99.6s30.431,4.453,30.988,4.453c.742,0,.742-.371.557-1.67C33.94,101.268,3.138,94.4,2.024,94.4.911,94.217-1.13,98.67,2.581,99.6Z" transform="translate(0.432 -23.029)"/>
      <path id="Path_479" data-name="Path 479" class="cls-2" d="M34.657,104.947a5.736,5.736,0,0,0-.371-1.484,1.869,1.869,0,0,0-.557-.186c-.928-.186-28.761-3.154-29.689-3.154-1.67-.186-2.041.186-2.227.742A5.317,5.317,0,0,0,3.3,104.576a3.941,3.941,0,0,0,2.412.742s27.833.186,28.39,0C34.1,105.318,34.657,105.318,34.657,104.947Z" transform="translate(1.571 -18.172)"/>
      <path id="Path_480" data-name="Path 480" class="cls-2" d="M34.364,106.827c-.742-1.484-.928-2.227-1.484-2.227s-27.277.742-27.462,2.412c-.186.742.186,5.2,4.453,4.453C9.87,111.466,35.477,108.868,34.364,106.827Z" transform="translate(4.647 -14.3)"/>
      <path id="Path_481" data-name="Path 481" class="cls-2" d="M34.15,109.049a11.363,11.363,0,0,0-.742-1.113c-.557-.742-1.3-.557-2.783-.186-4.453,1.113-19.669,5.567-20.782,6.494-.557.557,1.484,4.268,4.082,3.711,1.484-.371,14.844-4.824,18.741-6.68C33.037,110.9,34.707,110.162,34.15,109.049Z" transform="translate(8.386 -11.883)"/>
      <path id="Path_482" data-name="Path 482" class="cls-2" d="M35.395,112.389a5.025,5.025,0,0,0-1.3-1.484,1.7,1.7,0,0,0-2.041-.186c-.371.186-15.958,7.793-15.958,7.793s-.928.371-.557,1.113c.742,1.113,2.412,4.453,8.721,1.67,0,0,8.536-5.567,10.02-6.494C36.879,113.317,35.395,112.389,35.395,112.389Z" transform="translate(13.265 -9.286)"/>
      <path id="Path_483" data-name="Path 483" class="cls-2" d="M36.279,103.321c.186-.557-.742-39.338-.742-39.338-.371-4.639-7.237-4.824-7.237-2.041,0,1.67,5.752,40.637,6.309,41.379A.869.869,0,0,0,36.279,103.321Z" transform="translate(24.256 -52.358)"/>
      <path id="Path_484" data-name="Path 484" class="cls-2" d="M36.641,101.947c.186-.742,6.309-35.441,6.309-35.441.928-4.639-6.866-4.082-6.866-2.783S34.6,101.02,34.6,101.576,36.456,102.69,36.641,101.947Z" transform="translate(29.646 -50.057)"/>
      <path id="Path_485" data-name="Path 485" class="cls-2" d="M39.384,101.46c.186-.557,14.1-32.658,14.1-32.658,1.3-3.526-6.123-3.711-6.309-2.783-.371,1.113-9.278,33.957-9.278,34.7C38.086,101.832,39.2,102.017,39.384,101.46Z" transform="translate(32.47 -47.715)"/>
      <path id="Path_486" data-name="Path 486" class="cls-2" d="M42.377,101.6c.186-.371,18.741-30.06,18.741-30.06,1.67-3.154-4.639-3.9-5.381-2.969-.557.928-14.659,31.544-15.03,32.287C40.522,101.415,42.006,101.972,42.377,101.6Z" transform="translate(34.858 -45.442)"/>
      <path id="Path_487" data-name="Path 487" class="cls-2" d="M43.611,101.234a.935.935,0,0,0,1.3,1.113c.557-.371,21.71-26.534,21.71-26.534,1.856-3.34-3.34-4.453-4.268-3.711C61.61,72.658,43.426,100.306,43.611,101.234Z" transform="translate(37.335 -42.292)"/>
      <path id="Path_488" data-name="Path 488" class="cls-2" d="M45.605,101.724c.557,1.113.928,1.484,1.484,1.113.371-.186,22.452-21.71,22.452-21.71,2.412-2.969-1.67-5.567-2.6-4.639C66.016,77.045,45.048,100.61,45.605,101.724Z" transform="translate(39.052 -38.515)"/>
      <path id="Path_489" data-name="Path 489" class="cls-2" d="M71.493,81.6c-.371-.371-.928-.371-2.227.742-.742.742-21.524,19.483-22.081,20.04a1.869,1.869,0,0,0-.186.557c0,.371.371,1.113.371,1.484.186.186.557-.186.557-.186.557-.186,23.009-16.7,23.009-16.7a4.571,4.571,0,0,0,1.484-1.856" transform="translate(40.255 -34.166)"/>
      <path id="Path_490" data-name="Path 490" class="cls-2" d="M47.793,102.324c-.371.371-.186,1.113.186,2.783.371,2.041,22.638-10.762,22.638-10.762,3.9-2.041,1.484-5.752.928-6.309C70.245,86.738,48.35,101.768,47.793,102.324Z" transform="translate(40.761 -28.539)"/>
      <path id="Path_491" data-name="Path 491" class="cls-2" d="M49.852,101.751c-1.3.557-2.227.928-2.041,1.856v1.3c0,1.3,1.856.928,2.6.742,4.268-.742,17.628-5.01,19.112-5.567,2.412-.928,1.856-5.381,1.113-5.381C69.15,94.7,54.12,100.081,49.852,101.751Z" transform="translate(40.929 -22.77)"/>
      <path id="Path_492" data-name="Path 492" class="cls-2" d="M66.219,101.443s-17.071,2.969-17.442,2.969a2.241,2.241,0,0,0-1.67,1.3,3.608,3.608,0,0,0-.186,1.856s-.557,1.67,2.227,1.3c1.67-.186,12.061-1.113,12.061-1.113,6.866-1.3,5.938-4.639,5.938-5.938C67.147,101.072,66.219,101.443,66.219,101.443Z" transform="translate(40.148 -17.08)"/>
      <path id="Path_493" data-name="Path 493" class="cls-2" d="M36.21,87.517a24.521,24.521,0,0,0-13.731,18.556c-1.67,10.577,9.278,19.669,12.618,22.638,2.227,2.041,3.34.557,3.34.557s2.6-4.453,9.278-6.68,11.5-.186,11.5-.186,1.67.742,2.412-2.412c.928-4.268,4.453-18-3.154-25.607A24.643,24.643,0,0,0,36.21,87.517Z" transform="translate(19.129 -29.318)"/>
      <path id="Path_494" data-name="Path 494" class="cls-2" d="M70.237,124.585c-5.938-2.227-6.866-3.34-11.133-7.979-4.082-4.268-4.082-3.526-4.639-6.123a2.106,2.106,0,0,0-1.484-1.856,16.733,16.733,0,0,0-10.391-.186,15.255,15.255,0,0,0-8.35,6.309,2.084,2.084,0,0,0-.186,2.412c1.113,2.227.742,1.856-.186,7.608-.928,6.123-.928,7.608-4.268,12.989" transform="translate(25.369 -11.647)"/>
    </g>
    <g id="Group_86" data-name="Group 86" transform="translate(780.29 206.405)">
      <g id="Group_84" data-name="Group 84" transform="translate(0 30.496)">
        <path id="Path_495" data-name="Path 495" class="cls-2" d="M425.146,168.372c-.928,1.856-3.526-2.041-3.9-3.154a8.739,8.739,0,0,1-.742-4.082c.186-.557.186-2.783,1.113-7.979,2.041-10.762,9.463-16.7,16.886-21.153,10.206-6.123,20.226-4.268,24.308-3.34a7.156,7.156,0,0,1,3.9,2.412c.557.742,1.113,1.484,1.3,1.67,1.113,2.041-1.484,1.856-2.412,1.484-.928-.186-10.948-3.34-23.194,3.711-5.938,3.34-13.36,9.649-15.4,20.226-.928,5.381-1.113,7.793-1.3,8.35C425.331,166.888,425.517,167.073,425.146,168.372Z" transform="translate(-420.492 -127.658)"/>
      </g>
      <path id="Path_496" data-name="Path 496" class="cls-3" d="M432.3,135.7" transform="translate(-410.389 -90.283)"/>
      <path id="Path_497" data-name="Path 497" class="cls-3" d="M469.622,138.482c-.557-.557-1.113-3.34-8.35-3.711-5.567-.371-13.546-.557-21.524,5.567-11.133,8.536-13.36,22.452-13.546,25.607-.186,6.68,7.051,10.02,10.391,12.061,0,0,4.268,2.227,10.206,4.824,3.9,1.67,7.422-12.989,30.617-26.906,0,0,2.227-.928.371-4.082C475.188,147.388,470.549,139.409,469.622,138.482Z" transform="translate(-415.61 -91.209)"/>
      <path id="Path_498" data-name="Path 498" class="cls-3" d="M442.878,176.119c1.3,2.412,56.966,25.978,56.966,25.978.742.371.928.557,1.3.186.186-.186,0-.557-.185-.742L469.969,150.7c-1.484-2.969-4.453-1.3-5.01-.928C449.558,159.6,440.466,171.666,442.878,176.119Zm41.193,9.834c-1.67,2.783-6.123,1.113-9.092-.928s-5.752-6.309-4.082-8.721,5.2-1.484,8.164.557S485.741,183.17,484.071,185.954Z" transform="translate(-401.669 -78.932)"/>
      <g id="Group_85" data-name="Group 85" transform="translate(50.759)">
        <path id="Path_499" data-name="Path 499" class="cls-2" d="M500.829,122.87c2.227,0-.185-4.082-.928-5.01a10.073,10.073,0,0,0-3.34-2.6c-.557-.186-2.412-1.113-7.608-2.783-10.577-3.34-19.112.557-26.534,5.01-10.206,6.123-13.174,15.772-14.288,20.04a6.414,6.414,0,0,0,.371,4.639,8.051,8.051,0,0,0,.928,1.856c1.3,1.856,2.227-.557,2.6-1.484.186-.928,2.041-11.319,14.1-18.741,5.752-3.526,14.844-7.422,25.05-4.268,5.2,1.67,7.422,2.6,7.979,2.783C499.344,122.5,499.53,122.684,500.829,122.87Z" transform="translate(-447.847 -111.224)"/>
      </g>
      <path id="Path_500" data-name="Path 500" class="cls-2" d="M458.8,119.7" transform="translate(-387.717 -103.972)"/>
      <path id="Path_501" data-name="Path 501" class="cls-2" d="M452.887,148.368c-.186-.742-2.6-2.6.557-9.092,2.412-5.01,5.938-12.247,15.03-16.514,12.8-5.938,25.978-1.3,28.947,0,5.938,2.783,5.567,10.948,5.752,14.659,0,0,0,4.824-.557,11.133-.371,4.268-15.03.557-38.039,14.473,0,0-1.856,1.67-3.9-1.484C458.083,157.46,453.073,149.481,452.887,148.368Z" transform="translate(-393.68 -103.878)"/>
      <path id="Path_502" data-name="Path 502" class="cls-2" d="M462.2,149.5c-2.227,1.484-2.041,3.711-.928,5.752l29.689,50.1c.186.186.371.742.557.557.557-.371.371-.371.371-1.3,0,0,5.01-58.264,3.9-60.677C493.929,139.661,477.6,139.846,462.2,149.5Zm16.7,26.349c-.371-3.711.742-9.278,3.711-9.463,2.969-.371,5.752,4.268,6.123,7.979s0,9.092-3.154,9.278C482.239,183.823,479.27,179.555,478.9,175.844Z" transform="translate(-386.291 -85.522)"/>
    </g>
    <g id="Group_89" data-name="Group 89" transform="translate(144.577 7.119)">
      <g id="Group_87" data-name="Group 87" transform="translate(0 30.496)">
        <path id="Path_503" data-name="Path 503" class="cls-2" d="M82.546,60.972c-.928,1.856-3.526-2.041-3.9-3.154a8.739,8.739,0,0,1-.742-4.082c.186-.557.186-2.783,1.113-7.979,2.041-10.762,9.463-16.7,16.886-21.153,10.206-6.123,20.226-4.268,24.308-3.34a7.156,7.156,0,0,1,3.9,2.412c.557.742,1.113,1.484,1.3,1.67,1.113,2.041-1.484,1.856-2.412,1.484-.928-.186-10.948-3.34-23.194,3.711-5.938,3.34-13.36,9.649-15.4,20.226-.928,5.381-1.113,7.793-1.3,8.35C82.731,59.488,82.731,59.673,82.546,60.972Z" transform="translate(-77.892 -20.258)"/>
      </g>
      <path id="Path_504" data-name="Path 504" class="cls-2" d="M89.6,28.3" transform="translate(-67.875 17.117)"/>
      <path id="Path_505" data-name="Path 505" class="cls-2" d="M126.922,31.082c-.557-.557-1.113-3.34-8.35-3.711C113,27,105.026,26.814,97.047,32.937,85.914,41.473,83.687,55.389,83.5,58.544c-.186,6.68,7.051,10.02,10.391,12.061,0,0,4.268,2.227,10.206,4.824,3.9,1.67,7.422-12.989,30.617-26.906,0,0,2.227-.928.371-4.082C132.674,39.988,128.035,32.009,126.922,31.082Z" transform="translate(-73.095 16.191)"/>
      <path id="Path_506" data-name="Path 506" class="cls-2" d="M100.3,68.719c1.3,2.412,56.966,25.978,56.966,25.978.742.371.928.557,1.3.186.186-.186,0-.557-.186-.742L127.391,43.3c-1.484-2.969-4.453-1.3-5.01-.928C106.98,52.2,97.7,64.266,100.3,68.719Zm41.008,9.834c-1.67,2.783-6.123,1.113-9.092-.928s-5.752-6.309-4.082-8.721,5.2-1.484,8.164.557C139.452,71.5,143.163,75.77,141.308,78.554Z" transform="translate(-59.092 28.468)"/>
      <g id="Group_88" data-name="Group 88" transform="translate(50.759)">
        <path id="Path_507" data-name="Path 507" class="cls-2" d="M158.229,15.47c2.227,0-.186-4.082-.928-5.01a10.073,10.073,0,0,0-3.34-2.6c-.557-.186-2.412-1.113-7.608-2.783-10.577-3.34-19.112.557-26.534,5.01-10.206,6.123-13.174,15.772-14.288,20.04a6.414,6.414,0,0,0,.371,4.639,8.05,8.05,0,0,0,.928,1.856c1.3,1.856,2.227-.557,2.6-1.484.186-.928,2.041-11.319,14.1-18.741,5.752-3.526,14.844-7.422,25.05-4.268,5.2,1.67,7.422,2.6,7.979,2.783C156.744,15.1,156.93,15.284,158.229,15.47Z" transform="translate(-105.247 -3.824)"/>
      </g>
      <path id="Path_508" data-name="Path 508" class="cls-2" d="M116.2,12.3" transform="translate(-45.117 3.428)"/>
      <path id="Path_509" data-name="Path 509" class="cls-2" d="M110.287,40.968c-.186-.742-2.6-2.6.557-9.092,2.412-5.01,5.938-12.247,15.03-16.514,12.8-5.938,25.978-1.3,28.947,0,5.938,2.783,5.567,10.948,5.752,14.659,0,0,0,4.824-.557,11.133-.371,4.268-15.03.557-38.039,14.473,0,0-1.856,1.67-3.9-1.484C115.483,50.06,110.473,42.081,110.287,40.968Z" transform="translate(-51.08 3.522)"/>
      <path id="Path_510" data-name="Path 510" class="cls-2" d="M119.5,42.256c-2.227,1.484-2.041,3.711-.928,5.752l29.689,50.1c.186.186.371.742.557.557.557-.371.371-.371.371-1.3,0,0,5.01-58.264,3.9-60.677C151.414,32.236,135.085,32.422,119.5,42.256Zm16.7,26.349c-.371-3.711.742-9.278,3.711-9.463,2.969-.371,5.752,4.268,6.123,7.979s0,9.092-3.34,9.278C139.724,76.4,136.755,72.131,136.2,68.605Z" transform="translate(-43.777 21.902)"/>
    </g>
    <g id="Group_92" data-name="Group 92" transform="translate(159.607 195.458)">
      <g id="Group_90" data-name="Group 90" transform="translate(0 30.31)">
        <path id="Path_511" data-name="Path 511" class="cls-3" d="M90.646,162.372c-.928,1.856-3.526-2.041-3.9-3.154a8.739,8.739,0,0,1-.742-4.082c.186-.557.186-2.783,1.113-7.979,2.041-10.762,9.463-16.7,16.886-21.153,10.206-6.123,20.226-4.268,24.308-3.34a7.156,7.156,0,0,1,3.9,2.412c.557.742,1.113,1.484,1.3,1.67,1.113,2.041-1.484,1.856-2.412,1.484-.928-.186-10.948-3.34-23.194,3.711-5.938,3.34-13.36,9.649-15.4,20.226-.928,5.381-1.113,7.793-1.3,8.35A3.644,3.644,0,0,0,90.646,162.372Z" transform="translate(-85.992 -121.658)"/>
      </g>
      <path id="Path_512" data-name="Path 512" class="cls-2" d="M97.7,129.8" transform="translate(-75.975 -84.383)"/>
      <path id="Path_513" data-name="Path 513" class="cls-2" d="M135.022,132.582c-.557-.557-1.113-3.34-8.35-3.711-5.567-.371-13.546-.557-21.524,5.567-11.133,8.536-13.36,22.452-13.546,25.607-.186,6.68,7.051,10.02,10.391,12.061,0,0,4.268,2.227,10.206,4.824,3.9,1.67,7.422-12.989,30.617-26.906,0,0,2.227-.928.371-4.082C140.774,141.488,136.135,133.509,135.022,132.582Z" transform="translate(-81.195 -85.309)"/>
      <path id="Path_514" data-name="Path 514" class="cls-2" d="M108.4,170.219c1.3,2.412,56.966,25.978,56.966,25.978.742.371.928.557,1.3.186.186-.186,0-.557-.186-.742L135.491,144.8c-1.484-2.969-4.453-1.3-5.01-.928C115.08,153.7,105.8,165.766,108.4,170.219Zm41.008,9.834c-1.67,2.783-6.123,1.113-9.092-.928s-5.752-6.309-4.082-8.721,5.2-1.484,8.164.557C147.552,173,151.263,177.27,149.408,180.054Z" transform="translate(-67.192 -73.032)"/>
      <g id="Group_91" data-name="Group 91" transform="translate(50.759)">
        <path id="Path_515" data-name="Path 515" class="cls-2" d="M166.329,116.97c2.227,0-.186-4.082-.928-5.01a10.073,10.073,0,0,0-3.34-2.6c-.557-.186-2.412-1.113-7.608-2.783-10.577-3.34-19.112.557-26.534,5.01-10.206,6.123-13.174,15.772-14.288,20.04a6.414,6.414,0,0,0,.371,4.639,8.05,8.05,0,0,0,.928,1.856c1.3,1.856,2.227-.557,2.6-1.484.186-.928,2.041-11.319,14.1-18.741,5.752-3.526,14.844-7.422,25.05-4.268,5.2,1.67,7.422,2.6,8.164,2.783C164.844,116.6,165.03,116.6,166.329,116.97Z" transform="translate(-113.347 -105.324)"/>
      </g>
      <path id="Path_516" data-name="Path 516" class="cls-2" d="M124.3,113.8" transform="translate(-53.217 -98.072)"/>
      <path id="Path_517" data-name="Path 517" class="cls-2" d="M118.387,142.368c-.186-.742-2.6-2.6.557-9.092,2.412-5.01,5.938-12.247,15.03-16.514,12.8-5.938,25.978-1.3,28.947,0,5.938,2.783,5.567,10.948,5.752,14.659,0,0,0,4.824-.557,11.133-.371,4.268-15.03.557-38.224,14.473,0,0-1.856,1.67-3.9-1.484C123.583,151.46,118.573,143.667,118.387,142.368Z" transform="translate(-59.18 -98.064)"/>
      <path id="Path_518" data-name="Path 518" class="cls-2" d="M127.6,143.656c-2.227,1.484-2.041,3.711-.928,5.752l29.689,50.1c.186.186.371.742.557.557.557-.371.371-.371.557-1.3,0,0,5.01-58.264,3.9-60.677C159.514,133.636,143.185,133.822,127.6,143.656Zm16.7,26.349c-.371-3.711.742-9.278,3.711-9.463,2.969-.371,5.752,4.268,6.123,7.979s0,9.092-3.154,9.278S144.855,173.716,144.3,170.005Z" transform="translate(-51.877 -79.683)"/>
    </g>
    <g id="Group_95" data-name="Group 95" transform="translate(624.404 112.679)">
      <g id="Group_93" data-name="Group 93" transform="translate(0 3.806)">
        <path id="Path_519" data-name="Path 519" class="cls-2" d="M338.371,86.4c-1.484,1.113-2.041-3.154-1.856-4.082a6.414,6.414,0,0,1,1.113-3.526c.371-.371,1.113-2.041,4.082-5.938,6.123-7.793,14.473-9.463,22.081-10.02,10.577-.742,18,4.824,20.968,7.237a8.071,8.071,0,0,1,2.227,3.526,15.537,15.537,0,0,1,.371,1.856c0,2.041-2.041.742-2.6.186-.742-.557-7.422-7.237-20.226-6.494-6.123.371-14.844,2.227-20.6,10.02-2.969,3.9-4.082,5.752-4.453,6.309C339.114,85.469,339.114,85.469,338.371,86.4Z" transform="translate(-336.481 -62.764)"/>
      </g>
      <path id="Path_520" data-name="Path 520" class="cls-3" d="M350.6,68.2" transform="translate(-324.402 -54.307)"/>
      <path id="Path_521" data-name="Path 521" class="cls-3" d="M385.776,81.269c-.186-.557.557-3.154-5.01-6.494-4.453-2.6-10.762-5.938-19.669-4.268-12.432,2.227-19.854,12.432-21.339,15.03-2.969,5.2,1.484,10.948,3.34,13.917,0,0,2.6,3.526,6.123,7.979,2.412,2.969,11.319-7.422,35.627-9.092,0,0,2.227.186,2.041-3.154C386.7,90.547,386.147,82.2,385.776,81.269Z" transform="translate(-334.528 -52.717)"/>
      <path id="Path_522" data-name="Path 522" class="cls-3" d="M347.6,100.577c0,2.412,35.256,44.162,35.256,44.162.557.557.557.742,1.113.742.186,0,.186-.557.186-.742l-4.082-53.626c0-2.969-2.969-2.969-3.711-2.783C359.662,90,347.415,95.939,347.6,100.577Zm28.947,24.679c-2.6,1.484-5.381-1.484-6.866-4.453s-2.041-7.422.371-8.721,4.824.928,6.309,3.711C377.847,118.762,379.145,123.586,376.548,125.256Z" transform="translate(-326.97 -37.141)"/>
      <g id="Group_94" data-name="Group 94" transform="translate(55.619)">
        <path id="Path_523" data-name="Path 523" class="cls-2" d="M416.638,80.915c1.67.928,1.484-3.34,1.3-4.453-.557-2.227-1.3-3.154-1.67-3.34-.371-.371-1.484-1.856-5.01-5.381-7.051-6.866-15.587-7.422-23.38-6.866-10.577.742-17.071,7.237-19.669,10.206a6.15,6.15,0,0,0-1.67,3.9,5.91,5.91,0,0,0,0,1.856c.186,2.041,2.041.557,2.6-.186s6.309-8.164,19.112-9.278c6.123-.557,15.03.186,21.9,6.866,3.526,3.34,5.01,5.2,5.381,5.567A5.132,5.132,0,0,0,416.638,80.915Z" transform="translate(-366.456 -60.713)"/>
      </g>
      <path id="Path_524" data-name="Path 524" class="cls-3" d="M378.5,66.2" transform="translate(-300.532 -56.018)"/>
      <path id="Path_525" data-name="Path 525" class="cls-3" d="M367.046,82.513c.186-.557-.928-2.969,4.082-7.051,3.9-3.154,9.649-7.422,18.927-7.051,12.618.557,21.524,9.463,23.194,11.876,3.711,4.824,0,11.133-1.3,14.288,0,0-2.041,3.9-5.01,8.721-2.041,3.34-12.247-5.752-36.555-3.9,0,0-2.041.557-2.412-2.783C367.417,91.79,366.675,83.44,367.046,82.513Z" transform="translate(-310.417 -54.146)"/>
      <path id="Path_526" data-name="Path 526" class="cls-3" d="M371.354,88.2c-2.412.186-3.154,2.041-3.154,4.268l3.34,52.327c0,.186,0,.742.186.742.557,0,.557-.186.928-.928,0,0,27.833-44.719,28.019-47.317C401.043,93.21,387.683,86.715,371.354,88.2Zm2.6,28.019c1.113-3.154,4.453-7.051,6.866-6.123,2.6.928,2.783,5.938,1.67,8.907-1.113,3.154-3.711,7.237-6.309,6.123C373.4,124.012,372.839,119.373,373.952,116.219Z" transform="translate(-309.344 -37.381)"/>
    </g>
  </g>
</svg>
